<svg xmlns="http://www.w3.org/2000/svg" version="1.1" xmlns:xlink="http://www.w3.org/1999/xlink" xmlns:svgjs="http://svgjs.dev/svgjs" viewBox="0 0 1422 800"><symbol id="SvgjsSymbol1012"><polygon points="0,56.25 112.5,0 225,56.25 112.5,112.5"></polygon></symbol><symbol><polygon points="0,56.25 112.5,112.5 112.5,225 0,168.75"></polygon></symbol><symbol id="SvgjsSymbol1013"><polygon points="112.5,112.5 225,56.25 225,168.75 112.5,225"></polygon></symbol><g shape-rendering="crispEdges"><g transform="translate(-225 -250)"><use xlink:href="#SvgjsSymbol1012" x="562.5" y="0" fill="hsl(212, 95%, 30%)"></use><use xlink:href="#SvgjsSymbol1013" x="562.5" y="0" fill="#002266"></use></g><g transform="translate(-225 -250)"><use xlink:href="#SvgjsSymbol1012" x="450" y="56.25" fill="hsl(212, 95%, 30%)"></use><use xlink:href="#SvgjsSymbol1013" x="450" y="56.25" fill="#002266"></use></g><g transform="translate(-225 -250)"><use xlink:href="#SvgjsSymbol1012" x="337.5" y="112.5" fill="hsl(212, 95%, 30%)"></use><use xlink:href="#SvgjsSymbol1013" x="337.5" y="112.5" fill="#002266"></use></g><g transform="translate(-225 -250)"><use xlink:href="#SvgjsSymbol1012" x="225" y="168.75" fill="hsl(212, 95%, 30%)"></use><use xlink:href="#SvgjsSymbol1013" x="225" y="168.75" fill="#002266"></use></g><g transform="translate(-225 -250)"><use xlink:href="#SvgjsSymbol1012" x="112.5" y="225" fill="hsl(212, 95%, 30%)"></use><use xlink:href="#SvgjsSymbol1013" x="112.5" y="225" fill="#002266"></use></g><g transform="translate(-225 -250)"><use xlink:href="#SvgjsSymbol1012" x="0" y="281.25" fill="hsl(212, 95%, 30%)"></use><use xlink:href="#SvgjsSymbol1013" x="0" y="281.25" fill="#002266"></use></g><g transform="translate(-225 -250)"><use xlink:href="#SvgjsSymbol1012" x="675" y="56.25" fill="hsl(212, 95%, 30%)"></use><use xlink:href="#SvgjsSymbol1013" x="675" y="56.25" fill="#002266"></use></g><g transform="translate(-225 -250)"><use xlink:href="#SvgjsSymbol1012" x="787.5" y="0" fill="hsl(212, 95%, 30%)"></use><use xlink:href="#SvgjsSymbol1013" x="787.5" y="0" fill="#002266"></use></g><g transform="translate(-225 -250)"><use xlink:href="#SvgjsSymbol1012" x="562.5" y="112.5" fill="hsl(212, 95%, 30%)"></use><use xlink:href="#SvgjsSymbol1013" x="562.5" y="112.5" fill="#002266"></use></g><g transform="translate(-225 -250)"><use xlink:href="#SvgjsSymbol1012" x="450" y="168.75" fill="hsl(212, 95%, 30%)"></use><use xlink:href="#SvgjsSymbol1013" x="450" y="168.75" fill="#002266"></use></g><g transform="translate(-225 -250)"><use xlink:href="#SvgjsSymbol1012" x="337.5" y="225" fill="hsl(212, 95%, 30%)"></use><use xlink:href="#SvgjsSymbol1013" x="337.5" y="225" fill="#002266"></use></g><g transform="translate(-225 -250)"><use xlink:href="#SvgjsSymbol1012" x="225" y="281.25" fill="hsl(212, 95%, 30%)"></use><use xlink:href="#SvgjsSymbol1013" x="225" y="281.25" fill="#002266"></use></g><g transform="translate(-225 -250)"><use xlink:href="#SvgjsSymbol1012" x="112.5" y="337.5" fill="hsl(212, 95%, 30%)"></use><use xlink:href="#SvgjsSymbol1013" x="112.5" y="337.5" fill="#002266"></use></g><g transform="translate(-225 -250)"><use xlink:href="#SvgjsSymbol1012" x="0" y="393.75" fill="hsl(212, 95%, 30%)"></use><use xlink:href="#SvgjsSymbol1013" x="0" y="393.75" fill="#002266"></use></g><g transform="translate(-225 -250)"><use xlink:href="#SvgjsSymbol1012" x="1350" y="0" fill="hsl(212, 95%, 30%)"></use><use xlink:href="#SvgjsSymbol1013" x="1350" y="0" fill="#002266"></use></g><g transform="translate(-225 -250)"><use xlink:href="#SvgjsSymbol1012" x="1237.5" y="56.25" fill="hsl(212, 95%, 30%)"></use><use xlink:href="#SvgjsSymbol1013" x="1237.5" y="56.25" fill="#002266"></use></g><g transform="translate(-225 -250)"><use xlink:href="#SvgjsSymbol1012" x="1125" y="112.5" fill="hsl(212, 95%, 30%)"></use><use xlink:href="#SvgjsSymbol1013" x="1125" y="112.5" fill="#002266"></use></g><g transform="translate(-225 -250)"><use xlink:href="#SvgjsSymbol1012" x="1012.5" y="168.75" fill="hsl(212, 95%, 30%)"></use><use xlink:href="#SvgjsSymbol1013" x="1012.5" y="168.75" fill="#002266"></use></g><g transform="translate(-225 -250)"><use xlink:href="#SvgjsSymbol1012" x="900" y="225" fill="hsl(212, 95%, 30%)"></use><use xlink:href="#SvgjsSymbol1013" x="900" y="225" fill="#002266"></use></g><g transform="translate(-225 -250)"><use xlink:href="#SvgjsSymbol1012" x="787.5" y="281.25" fill="hsl(212, 95%, 30%)"></use><use xlink:href="#SvgjsSymbol1013" x="787.5" y="281.25" fill="#002266"></use></g><g transform="translate(-225 -250)"><use xlink:href="#SvgjsSymbol1012" x="675" y="337.5" fill="hsl(212, 95%, 30%)"></use><use xlink:href="#SvgjsSymbol1013" x="675" y="337.5" fill="#002266"></use></g><g transform="translate(-225 -250)"><use xlink:href="#SvgjsSymbol1012" x="562.5" y="393.75" fill="hsl(212, 95%, 30%)"></use><use xlink:href="#SvgjsSymbol1013" x="562.5" y="393.75" fill="#002266"></use></g><g transform="translate(-225 -250)"><use xlink:href="#SvgjsSymbol1012" x="450" y="450" fill="hsl(212, 95%, 30%)"></use><use xlink:href="#SvgjsSymbol1013" x="450" y="450" fill="#002266"></use></g><g transform="translate(-225 -250)"><use xlink:href="#SvgjsSymbol1012" x="337.5" y="506.25" fill="hsl(212, 95%, 30%)"></use><use xlink:href="#SvgjsSymbol1013" x="337.5" y="506.25" fill="#002266"></use></g><g transform="translate(-225 -250)"><use xlink:href="#SvgjsSymbol1012" x="225" y="562.5" fill="hsl(212, 95%, 30%)"></use><use xlink:href="#SvgjsSymbol1013" x="225" y="562.5" fill="#002266"></use></g><g transform="translate(-225 -250)"><use xlink:href="#SvgjsSymbol1012" x="112.5" y="618.75" fill="hsl(212, 95%, 30%)"></use><use xlink:href="#SvgjsSymbol1013" x="112.5" y="618.75" fill="#002266"></use></g><g transform="translate(-225 -250)"><use xlink:href="#SvgjsSymbol1012" x="0" y="675" fill="hsl(212, 95%, 30%)"></use><use xlink:href="#SvgjsSymbol1013" x="0" y="675" fill="#002266"></use></g><g transform="translate(-225 -250)"><use xlink:href="#SvgjsSymbol1012" x="1350" y="112.5" fill="hsl(212, 95%, 30%)"></use><use xlink:href="#SvgjsSymbol1013" x="1350" y="112.5" fill="#002266"></use></g><g transform="translate(-225 -250)"><use xlink:href="#SvgjsSymbol1012" x="1237.5" y="168.75" fill="hsl(212, 95%, 30%)"></use><use xlink:href="#SvgjsSymbol1013" x="1237.5" y="168.75" fill="#002266"></use></g><g transform="translate(-225 -250)"><use xlink:href="#SvgjsSymbol1012" x="1125" y="225" fill="hsl(212, 95%, 30%)"></use><use xlink:href="#SvgjsSymbol1013" x="1125" y="225" fill="#002266"></use></g><g transform="translate(-225 -250)"><use xlink:href="#SvgjsSymbol1012" x="956.25" y="281.25" fill="hsl(212, 95%, 30%)"></use><use xlink:href="#SvgjsSymbol1013" x="956.25" y="281.25" fill="#002266"></use></g><g transform="translate(-225 -250)"><use xlink:href="#SvgjsSymbol1012" x="1012.5" y="281.25" fill="hsl(212, 95%, 30%)"></use><use xlink:href="#SvgjsSymbol1013" x="1012.5" y="281.25" fill="#002266"></use></g><g transform="translate(-225 -250)"><use xlink:href="#SvgjsSymbol1012" x="900" y="337.5" fill="hsl(212, 95%, 30%)"></use><use xlink:href="#SvgjsSymbol1013" x="900" y="337.5" fill="#002266"></use></g><g transform="translate(-225 -250)"><use xlink:href="#SvgjsSymbol1012" x="787.5" y="393.75" fill="hsl(212, 95%, 30%)"></use><use xlink:href="#SvgjsSymbol1013" x="787.5" y="393.75" fill="#002266"></use></g><g transform="translate(-225 -250)"><use xlink:href="#SvgjsSymbol1012" x="675" y="450" fill="hsl(212, 95%, 30%)"></use><use xlink:href="#SvgjsSymbol1013" x="675" y="450" fill="#002266"></use></g><g transform="translate(-225 -250)"><use xlink:href="#SvgjsSymbol1012" x="562.5" y="506.25" fill="hsl(212, 95%, 30%)"></use><use xlink:href="#SvgjsSymbol1013" x="562.5" y="506.25" fill="#002266"></use></g><g transform="translate(-225 -250)"><use xlink:href="#SvgjsSymbol1012" x="393.75" y="562.5" fill="hsl(212, 95%, 30%)"></use><use xlink:href="#SvgjsSymbol1013" x="393.75" y="562.5" fill="#002266"></use></g><g transform="translate(-225 -250)"><use xlink:href="#SvgjsSymbol1012" x="450" y="562.5" fill="hsl(212, 95%, 30%)"></use><use xlink:href="#SvgjsSymbol1013" x="450" y="562.5" fill="#002266"></use></g><g transform="translate(-225 -250)"><use xlink:href="#SvgjsSymbol1012" x="337.5" y="618.75" fill="hsl(212, 95%, 30%)"></use><use xlink:href="#SvgjsSymbol1013" x="337.5" y="618.75" fill="#002266"></use></g><g transform="translate(-225 -250)"><use xlink:href="#SvgjsSymbol1012" x="225" y="675" fill="hsl(212, 95%, 30%)"></use><use xlink:href="#SvgjsSymbol1013" x="225" y="675" fill="#002266"></use></g><g transform="translate(-225 -250)"><use xlink:href="#SvgjsSymbol1012" x="225" y="675" fill="hsl(212, 95%, 30%)"></use><use xlink:href="#SvgjsSymbol1013" x="225" y="675" fill="#002266"></use></g><g transform="translate(-225 -250)"><use xlink:href="#SvgjsSymbol1012" x="112.5" y="731.25" fill="hsl(212, 95%, 30%)"></use><use xlink:href="#SvgjsSymbol1013" x="112.5" y="731.25" fill="#002266"></use></g></g><g></g></svg>